<?xml version="1.0" encoding="utf-8"?>
<!-- Generator: Adobe Illustrator 23.1.1, SVG Export Plug-In . SVG Version: 6.00 Build 0)  -->
<svg version="1.1" id="Ebene_1" xmlns="http://www.w3.org/2000/svg" xmlns:xlink="http://www.w3.org/1999/xlink" x="0px" y="0px"
	 viewBox="0 0 100 100" style="enable-background:new 0 0 100 100;" xml:space="preserve">
<circle cx="50" cy="34" r="8"/>
<path d="M50,99.7l-3.7-5.1c-0.3-0.4-7.7-10.8-15.2-23.7C20.8,53.1,15.5,39.7,15.5,31C15.5,12.2,28.7,0.5,50,0.5S84.5,12.2,84.5,31
	c0,8.7-5.3,22.1-15.6,39.9C61.4,83.8,54,94.2,53.7,94.6L50,99.7z M50,9.5C27.8,9.5,24.5,23,24.5,31c0,12.6,16,39,25.5,53.1
	C59.5,70,75.5,43.6,75.5,31C75.5,23,72.2,9.5,50,9.5z"/>
</svg>
